<mxfile host="app.diagrams.net" agent="Mozilla/5.0 (Windows NT 10.0; Win64; x64) AppleWebKit/537.36 (KHTML, like Gecko) Chrome/137.0.0.0 Safari/537.36" version="27.2.0">
  <diagram name="第 1 页" id="V9wlKrYQ1zID_lURUypo">
    <mxGraphModel dx="1426" dy="777" grid="1" gridSize="10" guides="1" tooltips="1" connect="1" arrows="1" fold="1" page="1" pageScale="1" pageWidth="827" pageHeight="1169" math="0" shadow="0">
      <root>
        <mxCell id="0" />
        <mxCell id="1" parent="0" />
        <mxCell id="lPH0H0TqqY35f4WuNbrs-3" value="" style="edgeStyle=orthogonalEdgeStyle;rounded=0;orthogonalLoop=1;jettySize=auto;html=1;" edge="1" parent="1" source="lPH0H0TqqY35f4WuNbrs-1" target="lPH0H0TqqY35f4WuNbrs-2">
          <mxGeometry relative="1" as="geometry" />
        </mxCell>
        <mxCell id="lPH0H0TqqY35f4WuNbrs-1" value="研究所内" style="rounded=0;whiteSpace=wrap;html=1;" vertex="1" parent="1">
          <mxGeometry x="140" y="130" width="120" height="60" as="geometry" />
        </mxCell>
        <mxCell id="lPH0H0TqqY35f4WuNbrs-5" value="" style="edgeStyle=orthogonalEdgeStyle;rounded=0;orthogonalLoop=1;jettySize=auto;html=1;" edge="1" parent="1" source="lPH0H0TqqY35f4WuNbrs-2" target="lPH0H0TqqY35f4WuNbrs-4">
          <mxGeometry relative="1" as="geometry" />
        </mxCell>
        <mxCell id="lPH0H0TqqY35f4WuNbrs-2" value="地下实验室" style="rounded=0;whiteSpace=wrap;html=1;" vertex="1" parent="1">
          <mxGeometry x="380" y="130" width="120" height="60" as="geometry" />
        </mxCell>
        <mxCell id="lPH0H0TqqY35f4WuNbrs-7" value="" style="edgeStyle=orthogonalEdgeStyle;rounded=0;orthogonalLoop=1;jettySize=auto;html=1;" edge="1" parent="1" source="lPH0H0TqqY35f4WuNbrs-4" target="lPH0H0TqqY35f4WuNbrs-6">
          <mxGeometry relative="1" as="geometry" />
        </mxCell>
        <mxCell id="lPH0H0TqqY35f4WuNbrs-4" value="研究所内" style="whiteSpace=wrap;html=1;rounded=0;" vertex="1" parent="1">
          <mxGeometry x="380" y="270" width="120" height="60" as="geometry" />
        </mxCell>
        <mxCell id="lPH0H0TqqY35f4WuNbrs-6" value="运输站" style="whiteSpace=wrap;html=1;rounded=0;" vertex="1" parent="1">
          <mxGeometry x="380" y="410" width="120" height="60" as="geometry" />
        </mxCell>
      </root>
    </mxGraphModel>
  </diagram>
</mxfile>
